<svg xmlns:svg="http://www.w3.org/2000/svg" xmlns="http://www.w3.org/2000/svg"><svg viewBox="16 0 80 16"><path fill="#f47521" d="M94.1 14V3.2H96V14zM90 14V3.2h1.9V14zM88.4 10.1c0 2.6-1.3 4-3.7 4-2.4 0-3.7-1.4-3.7-4s1.3-4 3.7-4c2.4 0 3.7 1.4 3.7 4zm-1.8 0c0-2.1-.7-2.5-1.8-2.5S83 8 83 10.1s.7 2.5 1.8 2.5c1 0 1.8-.4 1.8-2.5zM80.2 6.1v1.6c-1 0-2.2 0-2.2.5V14h-1.9V7.1c.1-1.2 4.1-1 4.1-1zM18.415 10.1a7.912 7.912 0 0115.8-.6V9a9 9 0 10-9 9h.6a7.963 7.963 0 01-7.4-7.9z"/><path fill="#f47521" d="M30.615 10.5a2.887 2.887 0 01-1-5.6 5.918 5.918 0 00-2.9-.7 6.3 6.3 0 106.3 6.3 4.869 4.869 0 00-.1-1.2 2.561 2.561 0 01-2.3 1.2z"/><path d="M30.544 5.255a2.366 2.366 0 00-2.363 2.363 2.367 2.367 0 002.363 2.363 2.367 2.367 0 002.363-2.363 2.367 2.367 0 00-2.363-2.363zm-.004.21a.155.155 0 01.151.155.155.155 0 01-.31 0 .155.155 0 01.16-.156zm.356.255a1.913 1.913 0 011.31.933l-.184.414a.143.143 0 00.072.188l.353.156a1.913 1.913 0 01.004.332h-.196c-.02 0-.028.013-.028.032v.09c0 .212-.119.259-.224.27-.1.012-.21-.042-.224-.103-.06-.331-.157-.402-.312-.524.192-.122.392-.303.392-.544 0-.26-.178-.424-.3-.505a.853.853 0 00-.41-.135h-2.03a1.913 1.913 0 011.07-.604l.24.251a.14.14 0 00.2.005zm-2.21 1.151a.155.155 0 01.152.156.155.155 0 01-.311 0 .155.155 0 01.16-.156zm3.707.007a.155.155 0 01.151.156.155.155 0 01-.31 0 .155.155 0 01.16-.156zm-3.413.025h.27v1.222h-.546a1.913 1.913 0 01-.062-.73l.335-.15a.142.142 0 00.072-.186zm1.13.013h.646c.033 0 .235.039.235.19 0 .126-.155.17-.282.17h-.6zm0 .878h.495c.045 0 .241.013.304.264.02.077.063.328.092.408.03.09.15.27.277.27h.806a1.913 1.913 0 01-.176.205l-.329-.07a.142.142 0 00-.168.109l-.078.364a1.913 1.913 0 01-1.596-.008l-.078-.364a.142.142 0 00-.168-.109l-.321.07a1.913 1.913 0 01-.166-.197h1.563c.018 0 .03-.003.03-.02v-.552c0-.016-.012-.02-.03-.02h-.457zM29.39 9.06a.155.155 0 01.15.156.155.155 0 01-.31 0 .155.155 0 01.16-.156zm2.302.007a.155.155 0 01.151.156.155.155 0 01-.31 0 .155.155 0 01.16-.156z"/><path d="M32.775 7.618a2.231 2.231 0 01-2.231 2.23 2.231 2.231 0 01-2.231-2.23 2.231 2.231 0 012.23-2.231 2.231 2.231 0 012.232 2.23zm-.042-.216l.348.216-.348.215.299.28-.383.143.239.332-.405.066.17.373-.409-.014.094.399-.399-.094.015.41-.373-.17-.066.404-.333-.24-.143.384-.28-.3-.215.349-.216-.348-.28.299-.143-.383-.332.239-.066-.405-.373.17.015-.41-.4.095.095-.4-.41.015.17-.373-.404-.066.239-.332-.383-.143.299-.28-.348-.215.348-.216-.3-.28.384-.143-.24-.332.405-.066-.17-.373.41.014-.094-.399.399.094-.015-.409.373.17.066-.404.332.238.144-.382.28.298.215-.347.215.347.28-.298.143.382.333-.238.066.404.373-.17-.015.41.399-.095-.094.4.41-.015-.17.373.404.066-.24.332.384.144z" fill-rule="evenodd" stroke="#000" stroke-linecap="round" stroke-linejoin="round" stroke-width=".15"/><path d="M35.797 11.772h.64v-5.76h-.64v-2.1h5.875q1.652 0 2.522.68.87.678.87 2.2 0 .859-.345 1.486-.346.627-.986.87l.013.128q1.229.192 1.229 1.51v.986h.601v2.1H41.52v-3.009q0-.499-.154-.755-.14-.256-.46-.345-.308-.09-.884-.09v2.1h.845v2.098h-5.069zm4.915-3.66q.372 0 .55-.193.193-.204.193-.627v-.46q0-.423-.192-.615-.18-.205-.55-.205h-.692v2.1zM54.434 11.772v2.1h-3.507v-1q-.922 1.179-2.304 1.179-1.063 0-1.6-.666-.525-.666-.525-1.83V8.854h-.563v-2.1h3.507v4.199q0 .422.18.627.191.192.562.192.372 0 .55-.192.193-.205.193-.627v-2.1h-.691V6.756h3.635v5.017zM57.903 14.05q-1.613 0-3.11-.511v-1.895h2.073v.128q0 .615.78.615.692 0 .692-.474 0-.256-.205-.384-.192-.128-.691-.218l-.64-.115q-2.01-.358-2.01-2.278 0-1.114.845-1.728.845-.615 2.279-.615 1.6 0 2.7.538v1.78h-1.945v-.129q0-.256-.18-.384-.166-.14-.499-.14-.64 0-.64.409 0 .218.18.333.179.115.652.217l.73.141q1.14.218 1.626.807.486.588.486 1.51 0 1.165-.82 1.78-.806.614-2.303.614zM64.597 14.05q-1.357 0-2.048-.652-.678-.666-.678-2.227V8.854h-.563v-2.1q.486 0 .73-.243.242-.256.242-.69v-.577h2.714v1.51h1.728v2.1h-1.728v2.099q0 .422.18.627.191.192.562.192.487 0 1.063-.115v2.01q-.359.14-.973.256-.602.128-1.229.128zM74.914 6.755v2.099h-.486l-1.677 4.441q-.627 1.677-1.434 2.51-.806.844-2.125.844-.537 0-1.088-.115-.55-.103-.998-.295v-2.316h1.766v.128q0 .32.333.32.295 0 .448-.282l-2.022-5.235h-.487v-2.1h3.802v2.1h-.435l.665 1.997.615-1.997h-.435v-2.1z"/></svg></svg>