<?xml version="1.0" encoding="UTF-8" standalone="no"?>
<svg
   xmlns:dc="http://purl.org/dc/elements/1.1/"
   xmlns:cc="http://creativecommons.org/ns#"
   xmlns:rdf="http://www.w3.org/1999/02/22-rdf-syntax-ns#"
   xmlns:svg="http://www.w3.org/2000/svg"
   xmlns="http://www.w3.org/2000/svg"
   xmlns:sodipodi="http://sodipodi.sourceforge.net/DTD/sodipodi-0.dtd"
   xmlns:inkscape="http://www.inkscape.org/namespaces/inkscape"
   version="1.1"
   id="svg77"
   sodipodi:docname="header.svg"
   inkscape:version="1.0.2-2 (e86c870879, 2021-01-15)"
   width="79.785027"
   height="18">
  <metadata
     id="metadata83">
    <rdf:RDF>
      <cc:Work
         rdf:about="">
        <dc:format>image/svg+xml</dc:format>
        <dc:type
           rdf:resource="http://purl.org/dc/dcmitype/StillImage" />
        <dc:title></dc:title>
      </cc:Work>
    </rdf:RDF>
  </metadata>
  <defs
     id="defs81">
    <rect
       x="21.650673"
       y="17.890594"
       width="73.88868"
       height="13.727447"
       id="rect846" />
  </defs>
  <sodipodi:namedview
     pagecolor="#ffffff"
     bordercolor="#666666"
     borderopacity="1"
     objecttolerance="10"
     gridtolerance="10"
     guidetolerance="10"
     inkscape:pageopacity="0"
     inkscape:pageshadow="2"
     inkscape:window-width="1920"
     inkscape:window-height="1057"
     id="namedview79"
     showgrid="false"
     inkscape:zoom="1.7366667"
     inkscape:cx="104.4935"
     inkscape:cy="30.219418"
     inkscape:window-x="-8"
     inkscape:window-y="-8"
     inkscape:window-maximized="1"
     inkscape:current-layer="cr_logo_noTagline"
     inkscape:document-rotation="0"
     fit-margin-top="0"
     fit-margin-left="0"
     fit-margin-right="0"
     fit-margin-bottom="0" />
  <svg
     id="cr_logo_noTagline"
     viewBox="0 0 96 18"
     version="1.1"
     width="100%"
     height="100%"
     transform="matrix(3.125,0,0,3.125,-16.214971,46.875)">
    <title
       id="title2">cr_logo_noTagline</title>
    <path
       fill="#f47521"
       d="M 94.1,14 V 3.2 H 96 V 14 Z"
       id="path4" />
    <path
       fill="#f47521"
       d="M 90,14 V 3.2 h 1.9 V 14 Z"
       id="path6" />
    <path
       fill="#f47521"
       d="m 88.4,10.1 c 0,2.6 -1.3,4 -3.7,4 -2.4,0 -3.7,-1.4 -3.7,-4 0,-2.6 1.3,-4 3.7,-4 2.4,0 3.7,1.4 3.7,4 z m -1.8,0 C 86.6,8 85.9,7.6 84.8,7.6 83.7,7.6 83,8 83,10.1 c 0,2.1 0.7,2.5 1.8,2.5 1,0 1.8,-0.4 1.8,-2.5 z"
       id="path8" />
    <path
       fill="#f47521"
       d="m 80.2,6.1 v 1.6 c -1,0 -2.2,0 -2.2,0.5 V 14 H 76.1 V 7.1 c 0.1,-1.2 4.1,-1 4.1,-1 z"
       id="path10" />
    <path
       fill="#f47521"
       d="m 18.414971,10.1 a 7.912,7.912 0 0 1 15.8,-0.6 V 9 a 9,9 0 1 0 -9,9 h 0.6 a 7.963,7.963 0 0 1 -7.4,-7.9 z"
       id="path26" />
    <path
       fill="#f47521"
       d="m 30.614971,10.5 a 2.887,2.887 0 0 1 -1,-5.6 5.918,5.918 0 0 0 -2.9,-0.7 6.3,6.3 0 1 0 6.3,6.3 4.869,4.869 0 0 0 -0.1,-1.2 2.561,2.561 0 0 1 -2.3,1.2 z"
       id="path28" />
    <text
       xml:space="preserve"
       id="text844"
       style="font-style:normal;font-weight:normal;font-size:12.8px;line-height:1.25;font-family:sans-serif;white-space:pre;shape-inside:url(#rect846);fill:#000000;fill-opacity:1;stroke:none;" />
    <text
       xml:space="preserve"
       style="font-style:normal;font-variant:normal;font-weight:bold;font-stretch:normal;font-size:12.8px;line-height:1.25;font-family:'Maven Pro';-inkscape-font-specification:'Maven Pro Bold';fill:#000000;fill-opacity:1;stroke:none;stroke-width:0.32"
       x="18.241844"
       y="27.380039"
       id="text852"><tspan
         sodipodi:role="line"
         id="tspan850"
         x="18.241844"
         y="27.380039"
         style="font-style:normal;font-variant:normal;font-weight:bold;font-stretch:normal;font-family:'Maven Pro';-inkscape-font-specification:'Maven Pro Bold';stroke-width:0.32" /></text>
    <text
       xml:space="preserve"
       style="font-style:normal;font-weight:normal;font-size:12.8px;line-height:1.25;font-family:sans-serif;fill:#000000;fill-opacity:1;stroke:none;stroke-width:0.32"
       x="22.019194"
       y="13.74472"
       id="text856"><tspan
         sodipodi:role="line"
         id="tspan854"
         x="22.019194"
         y="13.74472"
         style="font-style:normal;font-variant:normal;font-weight:bold;font-stretch:normal;font-family:'Maven Pro';-inkscape-font-specification:'Maven Pro Bold';stroke-width:0.32" /></text>
    <g
       id="g882"
       transform="matrix(0.04999125,0,0,0.04999125,26.99188,4.0707327)"
       style="opacity:1">
      <path
         d="M 71.05,23.68 C 44.99,23.68 23.78,44.9 23.78,70.95 23.78,97 45,118.22 71.05,118.22 97.1,118.22 118.32,97 118.32,70.95 118.32,44.9 97.1,23.68 71.05,23.68 Z m -0.07,4.2 a 3.1,3.11 0 0 1 3.02,3.11 3.11,3.11 0 0 1 -6.22,0 3.11,3.11 0 0 1 3.2,-3.11 z M 78.1,33 a 38.27,38.27 0 0 1 26.2,18.66 l -3.67,8.28 c -0.63,1.43 0.02,3.11 1.44,3.75 l 7.06,3.13 a 38.27,38.27 0 0 1 0.08,6.64 h -3.93 c -0.39,0 -0.55,0.26 -0.55,0.64 v 1.8 c 0,4.24 -2.39,5.17 -4.49,5.4 -2,0.23 -4.21,-0.84 -4.49,-2.06 -1.18,-6.63 -3.14,-8.04 -6.24,-10.49 3.85,-2.44 7.85,-6.05 7.85,-10.87 0,-5.21 -3.57,-8.49 -6,-10.1 -3.42,-2.25 -7.2,-2.7 -8.22,-2.7 H 42.54 A 38.27,38.27 0 0 1 63.95,33 l 4.79,5.02 c 1.08,1.13 2.87,1.18 4,0.09 z M 33.9,56.02 a 3.11,3.11 0 0 1 3.02,3.11 3.11,3.11 0 0 1 -6.22,0 3.11,3.11 0 0 1 3.2,-3.11 z m 74.15,0.14 a 3.11,3.11 0 0 1 3.02,3.11 3.11,3.11 0 0 1 -6.22,0 3.11,3.11 0 0 1 3.2,-3.11 z m -68.29,0.5 h 5.42 V 81.1 H 34.24 A 38.27,38.27 0 0 1 33,66.49 l 6.7,-2.98 c 1.43,-0.64 2.08,-2.31 1.44,-3.74 z m 22.62,0.26 h 12.91 c 0.67,0 4.71,0.77 4.71,3.8 0,2.51 -3.1,3.41 -5.65,3.41 H 62.37 Z m 0,17.56 h 9.89 c 0.9,0 4.83,0.26 6.08,5.28 0.39,1.54 1.26,6.56 1.85,8.17 0.59,1.8 2.98,5.4 5.53,5.4 h 16.14 a 38.27,38.27 0 0 1 -3.54,4.1 l -6.57,-1.41 c -1.53,-0.33 -3.04,0.65 -3.37,2.18 l -1.56,7.28 A 38.27,38.27 0 0 1 54.92,105.33 L 53.36,98.05 C 53.03,96.52 51.53,95.54 50,95.87 l -6.43,1.38 a 38.27,38.27 0 0 1 -3.32,-3.92 h 31.27 c 0.35,0 0.59,-0.06 0.59,-0.39 V 81.88 c 0,-0.32 -0.24,-0.39 -0.59,-0.39 H 62.37 Z M 47.95,99.81 a 3.11,3.11 0 0 1 3.02,3.11 3.11,3.11 0 0 1 -6.22,0 3.11,3.11 0 0 1 3.2,-3.11 z M 94,99.95 a 3.11,3.11 0 0 1 3.02,3.11 3.11,3.11 0 0 1 -6.22,0 3.11,3.11 0 0 1 3.2,-3.11 z"
         id="path868" />
      <path
         d="M 115.68,70.95 A 44.63,44.63 0 0 1 71.05,115.58 44.63,44.63 0 0 1 26.42,70.95 44.63,44.63 0 0 1 71.05,26.32 44.63,44.63 0 0 1 115.68,70.95 Z m -0.84,-4.31 6.96,4.31 -6.96,4.31 5.98,5.59 -7.66,2.87 4.78,6.65 -8.09,1.32 3.4,7.46 -8.19,-0.29 1.88,7.98 -7.98,-1.88 0.29,8.19 -7.46,-3.4 -1.32,8.09 -6.65,-4.78 -2.87,7.66 -5.59,-5.98 -4.31,6.96 -4.31,-6.96 -5.59,5.98 -2.87,-7.66 -6.65,4.78 -1.32,-8.09 -7.46,3.4 0.29,-8.19 -7.98,1.88 1.88,-7.98 -8.19,0.29 3.4,-7.46 -8.09,-1.32 4.78,-6.65 -7.66,-2.87 5.98,-5.59 -6.96,-4.31 6.96,-4.31 -5.98,-5.59 7.66,-2.87 -4.78,-6.65 8.09,-1.32 -3.4,-7.46 8.19,0.29 -1.88,-7.98 7.98,1.88 -0.29,-8.19 7.46,3.4 1.32,-8.09 6.65,4.78 2.87,-7.66 5.59,5.98 4.31,-6.96 4.31,6.96 5.59,-5.98 2.87,7.66 6.65,-4.78 1.32,8.09 7.46,-3.4 -0.29,8.19 7.98,-1.88 -1.88,7.98 8.19,-0.29 -3.4,7.46 8.09,1.32 -4.78,6.65 7.66,2.87 z"
         fill-rule="evenodd"
         stroke="#000000"
         stroke-linecap="round"
         stroke-linejoin="round"
         stroke-width="3"
         id="path870" />
    </g>
    <text
       xml:space="preserve"
       style="font-size:12.8px;line-height:1.25;font-family:'Alfa Slab One';-inkscape-font-specification:'Alfa Slab One';stroke-width:0.32"
       x="35.541271"
       y="13.871304"
       id="text858"><tspan
         sodipodi:role="line"
         id="tspan856"
         x="35.541271"
         y="13.871304"
         style="stroke-width:0.32">Rusty</tspan></text>
  </svg>
</svg>
